<svg xmlns="http://www.w3.org/2000/svg" viewBox="0 0 800 500" role="img" aria-labelledby="title desc">
  <title id="title">Placeholder image for Project 3</title>
  <desc id="desc">Abstract particle characterization illustration with measured grains and scan markers.</desc>
  <defs>
    <linearGradient id="bg-p3" x1="0%" y1="0%" x2="100%" y2="100%">
      <stop offset="0%" stop-color="#c3f0ca" />
      <stop offset="55%" stop-color="#7dd3c7" />
      <stop offset="100%" stop-color="#8aa7ff" />
    </linearGradient>
  </defs>
  <rect width="800" height="500" fill="url(#bg-p3)" />
  <g fill="#f7fff8" opacity="0.9">
    <ellipse cx="185" cy="185" rx="52" ry="40" transform="rotate(-18 185 185)" />
    <ellipse cx="305" cy="145" rx="38" ry="56" transform="rotate(24 305 145)" />
    <ellipse cx="430" cy="215" rx="58" ry="42" transform="rotate(10 430 215)" />
    <ellipse cx="560" cy="155" rx="44" ry="52" transform="rotate(-30 560 155)" />
    <ellipse cx="640" cy="265" rx="54" ry="38" transform="rotate(18 640 265)" />
  </g>
  <g stroke="#19535f" stroke-width="7" fill="none" opacity="0.82">
    <circle cx="185" cy="185" r="70" />
    <circle cx="430" cy="215" r="76" />
    <circle cx="640" cy="265" r="68" />
    <path d="M115 315 H690" stroke-linecap="round" />
    <path d="M145 345 H650" stroke-linecap="round" opacity="0.6" />
  </g>
  <g stroke="#19535f" stroke-width="5" opacity="0.75">
    <line x1="185" y1="105" x2="185" y2="265" />
    <line x1="105" y1="185" x2="265" y2="185" />
    <line x1="430" y1="125" x2="430" y2="305" />
    <line x1="340" y1="215" x2="520" y2="215" />
    <line x1="640" y1="190" x2="640" y2="340" />
    <line x1="565" y1="265" x2="715" y2="265" />
  </g>
  <text x="60" y="440" font-family="Arial, sans-serif" font-size="56" font-weight="700" fill="#19535f">Project 3</text>
</svg>
